<svg width="120" height="30" viewBox="0 0 120 30" fill="none" xmlns="http://www.w3.org/2000/svg">
<path d="M10.0247 16.1105H5.8451V24.5345C5.8451 25.3013 5.99175 25.8504 6.28505 26.182C6.5993 26.4929 7.07068 26.6587 7.69919 26.6794C8.32769 26.6794 9.10285 26.6586 10.0247 26.6172V29.0418C7.63634 29.3527 5.887 29.1662 4.77664 28.4823C3.66628 27.7777 3.1111 26.4618 3.1111 24.5345V16.1105H0V13.4993H3.1111V9.95566L5.8451 9.14745V13.4993H10.0247V16.1105Z" fill="#121E48"/>
<path d="M16.0875 16.1105C16.9884 14.1832 18.6225 13.2196 20.9899 13.2196V16.0483C19.6491 15.9861 18.4968 16.3384 17.5331 17.1052C16.5694 17.872 16.0875 19.105 16.0875 20.8043V29.0418H13.3535V13.4993H16.0875V16.1105Z" fill="#121E48"/>
<path d="M35.8157 13.4993H38.5497V29.0418H35.8157V26.3685C34.4539 28.4201 32.4742 29.4459 29.8763 29.4459C27.6766 29.4459 25.8015 28.6585 24.2512 27.0835C22.7009 25.4878 21.9257 23.5502 21.9257 21.2706C21.9257 18.991 22.7009 17.0638 24.2512 15.4888C25.8015 13.8931 27.6766 13.0952 29.8763 13.0952C32.4742 13.0952 34.4539 14.121 35.8157 16.1727V13.4993ZM30.222 26.8348C31.8142 26.8348 33.1446 26.3064 34.213 25.2495C35.2815 24.1719 35.8157 22.8456 35.8157 21.2706C35.8157 19.6956 35.2815 18.3797 34.213 17.3228C33.1446 16.2452 31.8142 15.7064 30.222 15.7064C28.6508 15.7064 27.3309 16.2452 26.2624 17.3228C25.194 18.3797 24.6597 19.6956 24.6597 21.2706C24.6597 22.8456 25.194 24.1719 26.2624 25.2495C27.3309 26.3064 28.6508 26.8348 30.222 26.8348Z" fill="#121E48"/>
<path d="M50.0769 29.4459C47.7095 29.4459 45.7402 28.6688 44.1689 27.1146C42.5977 25.5396 41.812 23.5916 41.812 21.2706C41.812 18.9496 42.5977 17.0119 44.1689 15.4577C45.7402 13.8827 47.7095 13.0952 50.0769 13.0952C51.6272 13.0952 53.0204 13.4683 54.2564 14.2143C55.4925 14.9396 56.4143 15.924 57.0219 17.1674L54.7278 18.4729C54.3298 17.644 53.7117 16.9809 52.8737 16.4835C52.0567 15.9861 51.1244 15.7375 50.0769 15.7375C48.5056 15.7375 47.1858 16.2659 46.1173 17.3228C45.0698 18.3797 44.546 19.6956 44.546 21.2706C44.546 22.8248 45.0698 24.1304 46.1173 25.1873C47.1858 26.2442 48.5056 26.7726 50.0769 26.7726C51.1244 26.7726 52.0672 26.5343 52.9052 26.0577C53.7432 25.5603 54.3821 24.8972 54.8221 24.0682L57.1476 25.4049C56.4772 26.6276 55.5135 27.6119 54.2564 28.358C52.9994 29.0833 51.6063 29.4459 50.0769 29.4459Z" fill="#121E48"/>
<path d="M73.1398 29.0418H69.7459L62.581 21.6747V29.0418H59.847V7.28235H62.581V20.3691L69.3688 13.4993H72.8884L65.3778 21.0219L73.1398 29.0418Z" fill="#121E48"/>
<path d="M80.4221 4.11609H83.3465V29.0409H80.4221V4.11609Z" fill="#121E48"/>
<path d="M95.6154 13.0579C97.4603 13.0579 98.9382 13.6394 100.049 14.8026C101.16 15.945 101.716 17.5028 101.716 19.476V29.0409H98.9801V19.6318C98.9801 18.3648 98.6342 17.3885 97.9424 16.7031C97.2506 15.9969 96.2968 15.6438 95.0809 15.6438C93.7182 15.6438 92.6176 16.0696 91.7791 16.9212C90.9406 17.752 90.5213 19.0398 90.5213 20.7845V29.0409H87.7855V13.4629H90.5213V15.7061C91.6324 13.9406 93.3304 13.0579 95.6154 13.0579Z" fill="#121E48"/>
<path d="M112.925 29.4459C110.556 29.4459 108.585 28.667 107.013 27.1092C105.441 25.5306 104.655 23.5782 104.655 21.2519C104.655 18.9256 105.441 16.9835 107.013 15.4257C108.585 13.8471 110.556 13.0579 112.925 13.0579C114.476 13.0579 115.87 13.4317 117.107 14.1795C118.344 14.9064 119.266 15.8931 119.874 17.1393L117.579 18.4478C117.18 17.617 116.562 16.9524 115.723 16.4539C114.906 15.9554 113.973 15.7061 112.925 15.7061C111.352 15.7061 110.032 16.2358 108.963 17.2951C107.914 18.3544 107.39 19.6733 107.39 21.2519C107.39 22.8097 107.914 24.1182 108.963 25.1775C110.032 26.2368 111.352 26.7665 112.925 26.7665C113.973 26.7665 114.916 26.5276 115.755 26.0499C116.593 25.5514 117.233 24.8867 117.673 24.0559L120 25.3956C119.329 26.6211 118.365 27.6077 117.107 28.3554C115.849 29.0824 114.455 29.4459 112.925 29.4459Z" fill="#121E48"/>
<path d="M92.1372 9.91961L89.9463 12.0317L81.847 4.22415L73.7477 12.0317L71.5568 9.91961L81.847 1.52588e-05L92.1372 9.91961Z" fill="#1CD2AD"/>
</svg>
