<svg width="40" height="40" viewBox="0 0 40 40" fill="none" xmlns="http://www.w3.org/2000/svg">
<mask id="mask0_1_2862" style="mask-type:alpha" maskUnits="userSpaceOnUse" x="0" y="0" width="40" height="40">
<rect width="40" height="40" fill="#D9D9D9"/>
</mask>
<g mask="url(#mask0_1_2862)">
<path d="M3.25 33.8337C2.72222 33.8337 2.27778 33.6531 1.91667 33.292C1.55556 32.9309 1.375 32.4864 1.375 31.9587V28.8337C1.375 27.8059 1.63222 26.8753 2.14667 26.042C2.66 25.2087 3.34722 24.5698 4.20833 24.1253C5.95833 23.2364 7.73611 22.5764 9.54167 22.1453C11.3472 21.7153 13.1806 21.5003 15.0417 21.5003C16.9028 21.5003 18.7361 21.7153 20.5417 22.1453C22.3472 22.5764 24.1111 23.2225 25.8333 24.0837C26.6944 24.5281 27.3889 25.1742 27.9167 26.022C28.4444 26.8687 28.7083 27.8059 28.7083 28.8337V31.9587C28.7083 32.4864 28.5278 32.9309 28.1667 33.292C27.8056 33.6531 27.3472 33.8337 26.7917 33.8337H3.25ZM31.2917 33.8337C31.5694 33.6114 31.785 33.3337 31.9383 33.0003C32.0906 32.667 32.1667 32.3059 32.1667 31.917V28.5003C32.1667 27.2503 31.8333 26.0492 31.1667 24.897C30.5 23.7437 29.5278 22.7087 28.25 21.792C29.6111 21.9864 30.8889 22.2781 32.0833 22.667C33.2778 23.0559 34.4028 23.5281 35.4583 24.0837C36.4861 24.6392 37.2711 25.2987 37.8133 26.062C38.3544 26.8264 38.625 27.6531 38.625 28.542V31.9587C38.625 32.4864 38.4444 32.9309 38.0833 33.292C37.7222 33.6531 37.2778 33.8337 36.75 33.8337H31.2917ZM15.0417 19.8337C13.1528 19.8337 11.5417 19.167 10.2083 17.8337C8.875 16.5003 8.20833 14.8892 8.20833 13.0003C8.20833 11.1114 8.875 9.50033 10.2083 8.16699C11.5417 6.83366 13.1528 6.16699 15.0417 6.16699C16.9306 6.16699 18.5417 6.83366 19.875 8.16699C21.2083 9.50033 21.875 11.1114 21.875 13.0003C21.875 14.8892 21.2083 16.5003 19.875 17.8337C18.5417 19.167 16.9306 19.8337 15.0417 19.8337ZM32.1667 13.0003C32.1667 14.8892 31.5 16.5003 30.1667 17.8337C28.8333 19.167 27.2222 19.8337 25.3333 19.8337C25.0278 19.8337 24.6461 19.7987 24.1883 19.7287C23.7294 19.6598 23.3333 19.5698 23 19.4587C23.75 18.5698 24.3267 17.5698 24.73 16.4587C25.1322 15.3475 25.3333 14.1948 25.3333 13.0003C25.3333 11.8059 25.1322 10.6531 24.73 9.54199C24.3267 8.43088 23.75 7.43088 23 6.54199C23.3889 6.37533 23.7778 6.27088 24.1667 6.22866C24.5556 6.18755 24.9444 6.16699 25.3333 6.16699C27.2222 6.16699 28.8333 6.83366 30.1667 8.16699C31.5 9.50033 32.1667 11.1114 32.1667 13.0003Z" fill="#1CD2AD"/>
</g>
</svg>
