<svg width="40" height="40" viewBox="0 0 40 40" fill="none" xmlns="http://www.w3.org/2000/svg">
<mask id="mask0_1_2845" style="mask-type:alpha" maskUnits="userSpaceOnUse" x="0" y="0" width="40" height="40">
<rect width="40" height="40" fill="#D9D9D9"/>
</mask>
<g mask="url(#mask0_1_2845)">
<path d="M2.917 33.75C2.47233 33.75 2.104 33.5973 1.812 33.292C1.52067 32.986 1.375 32.611 1.375 32.167V29.292C1.375 28.264 1.632 27.3333 2.146 26.5C2.66 25.6667 3.37533 25.0417 4.292 24.625C6.236 23.7363 8.05533 23.0907 9.75 22.688C11.4447 22.2847 13.1807 22.083 14.958 22.083C16.764 22.083 18.5073 22.2847 20.188 22.688C21.868 23.0907 23.6803 23.7363 25.625 24.625C26.5417 25.0417 27.264 25.6667 27.792 26.5C28.3193 27.3333 28.583 28.264 28.583 29.292V32.167C28.583 32.611 28.4303 32.986 28.125 33.292C27.8197 33.5973 27.4447 33.75 27 33.75H2.917ZM30.542 33.75C30.8193 33.6387 31.0483 33.4373 31.229 33.146C31.4097 32.854 31.5 32.5137 31.5 32.125V29.208C31.5 27.5973 31.0903 26.2153 30.271 25.062C29.4517 23.9093 28.3473 22.9303 26.958 22.125C28.6527 22.347 30.25 22.6663 31.75 23.083C33.25 23.4997 34.514 23.972 35.542 24.5C36.514 25.0553 37.2707 25.736 37.812 26.542C38.354 27.3473 38.625 28.25 38.625 29.25V32.167C38.625 32.611 38.4793 32.986 38.188 33.292C37.896 33.5973 37.5277 33.75 37.083 33.75H30.542ZM14.958 19.833C13.0973 19.833 11.5487 19.215 10.312 17.979C9.076 16.743 8.458 15.1807 8.458 13.292C8.458 11.4307 9.076 9.88199 10.312 8.64599C11.5487 7.40999 13.0973 6.79199 14.958 6.79199C16.8473 6.79199 18.41 7.40999 19.646 8.64599C20.882 9.88199 21.5 11.4307 21.5 13.292C21.5 15.1807 20.882 16.743 19.646 17.979C18.41 19.215 16.8473 19.833 14.958 19.833ZM30.917 13.292C30.917 15.1807 30.2987 16.743 29.062 17.979C27.826 19.215 26.2777 19.833 24.417 19.833C24.0837 19.833 23.7223 19.8053 23.333 19.75C22.9443 19.6947 22.5833 19.6113 22.25 19.5C22.9447 18.722 23.4793 17.8053 23.854 16.75C24.2293 15.6947 24.417 14.542 24.417 13.292C24.417 12.042 24.2293 10.91 23.854 9.89599C23.4793 8.88199 22.9447 7.94433 22.25 7.08299C22.5833 6.99966 22.9373 6.93033 23.312 6.87499C23.6873 6.81966 24.0557 6.79199 24.417 6.79199C26.2777 6.79199 27.826 7.40999 29.062 8.64599C30.2987 9.88199 30.917 11.4307 30.917 13.292ZM4.5 30.583H25.417V29.333C25.417 28.9443 25.3057 28.5693 25.083 28.208C24.861 27.8473 24.5833 27.5973 24.25 27.458C22.4447 26.6247 20.8407 26.0483 19.438 25.729C18.0347 25.4097 16.5413 25.25 14.958 25.25C13.4027 25.25 11.9167 25.4097 10.5 25.729C9.08333 26.0483 7.47233 26.6247 5.667 27.458C5.33367 27.5973 5.05567 27.8473 4.833 28.208C4.611 28.5693 4.5 28.9443 4.5 29.333V30.583ZM14.958 16.792C15.958 16.792 16.7913 16.4587 17.458 15.792C18.1247 15.1253 18.458 14.292 18.458 13.292C18.458 12.292 18.1247 11.4587 17.458 10.792C16.7913 10.1253 15.958 9.79199 14.958 9.79199C13.958 9.79199 13.1247 10.1253 12.458 10.792C11.7913 11.4587 11.458 12.292 11.458 13.292C11.458 14.292 11.7913 15.1253 12.458 15.792C13.1247 16.4587 13.958 16.792 14.958 16.792Z" fill="#AAAAAA"/>
</g>
</svg>
