<svg width="40" height="40" viewBox="0 0 40 40" fill="none" xmlns="http://www.w3.org/2000/svg">
<mask id="mask0_1_2852" style="mask-type:alpha" maskUnits="userSpaceOnUse" x="0" y="0" width="40" height="40">
<rect width="40" height="40" fill="#D9D9D9"/>
</mask>
<g mask="url(#mask0_1_2852)">
<path d="M21.5833 12.9583V6.29166C21.5833 5.76388 21.7638 5.31943 22.125 4.95832C22.4861 4.59721 22.9444 4.41666 23.5 4.41666H33.7083C34.2361 4.41666 34.6805 4.59721 35.0416 4.95832C35.4027 5.31943 35.5833 5.76388 35.5833 6.29166V12.9583C35.5833 13.4861 35.4027 13.9372 35.0416 14.3117C34.6805 14.6872 34.2361 14.875 33.7083 14.875H23.5C22.9444 14.875 22.4861 14.6872 22.125 14.3117C21.7638 13.9372 21.5833 13.4861 21.5833 12.9583ZM4.41663 20.0417V6.29166C4.41663 5.76388 4.59718 5.31943 4.95829 4.95832C5.3194 4.59721 5.76385 4.41666 6.29163 4.41666H16.5C17.0555 4.41666 17.5138 4.59721 17.875 4.95832C18.2361 5.31943 18.4166 5.76388 18.4166 6.29166V20.0417C18.4166 20.5694 18.2361 21.0139 17.875 21.375C17.5138 21.7361 17.0555 21.9167 16.5 21.9167H6.29163C5.76385 21.9167 5.3194 21.7361 4.95829 21.375C4.59718 21.0139 4.41663 20.5694 4.41663 20.0417ZM21.5833 33.6667V19.9583C21.5833 19.4028 21.7638 18.9444 22.125 18.5833C22.4861 18.2222 22.9444 18.0417 23.5 18.0417H33.7083C34.2361 18.0417 34.6805 18.2222 35.0416 18.5833C35.4027 18.9444 35.5833 19.4028 35.5833 19.9583V33.6667C35.5833 34.1944 35.4027 34.6461 35.0416 35.0217C34.6805 35.3961 34.2361 35.5833 33.7083 35.5833H23.5C22.9444 35.5833 22.4861 35.3961 22.125 35.0217C21.7638 34.6461 21.5833 34.1944 21.5833 33.6667ZM4.41663 33.6667V27C4.41663 26.4722 4.59718 26.0278 4.95829 25.6667C5.3194 25.3055 5.76385 25.125 6.29163 25.125H16.5C17.0555 25.125 17.5138 25.3055 17.875 25.6667C18.2361 26.0278 18.4166 26.4722 18.4166 27V33.6667C18.4166 34.1944 18.2361 34.6461 17.875 35.0217C17.5138 35.3961 17.0555 35.5833 16.5 35.5833H6.29163C5.76385 35.5833 5.3194 35.3961 4.95829 35.0217C4.59718 34.6461 4.41663 34.1944 4.41663 33.6667ZM8.20829 18.125H14.625V8.20832H8.20829V18.125ZM25.375 31.7917H31.7916V21.8333H25.375V31.7917ZM25.375 11.0833H31.7916V8.20832H25.375V11.0833ZM8.20829 31.7917H14.625V28.9167H8.20829V31.7917Z" fill="#AAAAAA"/>
</g>
</svg>
