<svg width="47" height="47" viewBox="0 0 47 47" fill="none" xmlns="http://www.w3.org/2000/svg">
<g opacity="0.6">
<path fill-rule="evenodd" clip-rule="evenodd" d="M28.6599 0.573502C23.7622 -0.5288 18.6402 -0.0336911 14.0443 1.9863C9.44842 4.00628 5.62018 7.44497 3.12045 11.7986C0.620717 16.1522 -0.419119 21.1919 0.153278 26.1794C0.725676 31.1669 2.88022 35.84 6.30127 39.5141C9.72232 43.1882 14.2301 45.6702 19.1641 46.5965C24.0981 47.5228 29.1991 46.8446 33.7198 44.6614C38.2404 42.4782 41.9431 38.9047 44.2854 34.4643C46.6277 30.024 47.4864 24.9503 46.7358 19.9865L42.0887 20.6892C42.6891 24.6602 42.0021 28.7192 40.1283 32.2715C38.2545 35.8237 35.2923 38.6825 31.6758 40.4291C28.0593 42.1757 23.9785 42.7182 20.0313 41.9772C16.084 41.2362 12.4779 39.2506 9.74102 36.3113C7.00418 33.372 5.28054 29.6335 4.82262 25.6435C4.36471 21.6535 5.19657 17.6218 7.19636 14.1389C9.19615 10.656 12.2587 7.90502 15.9355 6.28903C19.6122 4.67305 23.7098 4.27696 27.628 5.1588L28.6599 0.573502ZM21.512 37V33.9147C20.1022 33.5911 18.9296 32.9727 17.9941 32.0593C17.0576 31.1469 16.3929 29.8818 16 28.264L19.5707 26.912C19.8942 28.1138 20.3796 28.9805 21.0267 29.512C21.6738 30.0436 22.4827 30.3093 23.4534 30.3093C24.3316 30.3093 25.0249 30.1476 25.5334 29.824C26.0418 29.5005 26.296 28.992 26.296 28.2987C26.296 27.6516 26.0302 27.0969 25.4987 26.6347C24.9671 26.1725 23.8 25.6756 21.9974 25.144C20.1022 24.5662 18.7618 23.792 17.976 22.8213C17.1902 21.8507 16.7974 20.6951 16.7974 19.3547C16.7974 17.9449 17.254 16.7662 18.1674 15.8187C19.0798 14.8711 20.1947 14.2702 21.512 14.016V11H24.8054V14.016C26.0534 14.2933 27.0878 14.8073 27.9087 15.558C28.7287 16.3096 29.3351 17.2516 29.728 18.384L26.2267 19.84C25.9725 19.1467 25.5856 18.6036 25.0661 18.2107C24.5456 17.8178 23.8809 17.6213 23.072 17.6213C22.2169 17.6213 21.5989 17.7771 21.2181 18.0887C20.8363 18.4011 20.6454 18.7885 20.6454 19.2507C20.6454 19.8516 20.9051 20.3369 21.4247 20.7067C21.9451 21.0765 23.1067 21.5271 24.9094 22.0587C26.5965 22.5671 27.8907 23.3529 28.792 24.416C29.6934 25.4791 30.144 26.7502 30.144 28.2293C30.144 29.9627 29.6356 31.2916 28.6187 32.216C27.6018 33.1405 26.3307 33.7298 24.8054 33.984V37H21.512ZM32 14.175L34.225 16.4L43.25 7.37501V15.15H46.4V2.00001H33.25V5.15001H41.025L32 14.175Z" fill="#EC4A4A"/>
</g>
</svg>
