<svg width="47" height="47" viewBox="0 0 47 47" fill="none" xmlns="http://www.w3.org/2000/svg">
<g opacity="0.6">
<path fill-rule="evenodd" clip-rule="evenodd" d="M40.8652 35.7565C43.4032 33.2184 45.2465 30.0707 46.2181 26.6153C47.1896 23.16 47.257 19.5129 46.4136 16.0241C45.5702 12.5352 43.8444 9.3216 41.4017 6.69159C38.9591 4.06159 35.8815 2.10342 32.4644 1.00496C29.0473 -0.0935063 25.4052 -0.2954 21.8876 0.418643C18.3699 1.13269 15.0948 2.73871 12.3765 5.08262C9.65809 7.42653 7.58767 10.4297 6.36383 13.804C5.13999 17.1782 4.80381 20.8104 5.38753 24.352L9.52089 23.6707C9.05391 20.8374 9.32286 17.9317 10.3019 15.2323C11.281 12.5329 12.9373 10.1304 15.112 8.25523C17.2867 6.38009 19.9068 5.09528 22.7209 4.52404C25.535 3.95281 28.4487 4.11432 31.1824 4.99309C33.9161 5.87186 36.3781 7.4384 38.3323 9.5424C40.2864 11.6464 41.667 14.2173 42.3417 17.0084C43.0164 19.7995 42.9626 22.7171 42.1853 25.4814C41.408 28.2457 39.9334 30.7639 37.903 32.7943L40.8652 35.7565ZM25.3042 30.3261V27.5761C24.0477 27.2877 23.0025 26.7365 22.1687 25.9224C21.334 25.1092 20.7416 23.9816 20.3914 22.5397L23.5739 21.3346C23.8623 22.4058 24.2949 23.1782 24.8717 23.652C25.4484 24.1258 26.1694 24.3627 27.0346 24.3627C27.8173 24.3627 28.4353 24.2185 28.8885 23.9301C29.3417 23.6417 29.5682 23.1885 29.5682 22.5706C29.5682 21.9938 29.3314 21.4994 28.8576 21.0874C28.3838 20.6754 27.3436 20.2326 25.7368 19.7588C24.0477 19.2438 22.853 18.5537 22.1526 17.6886C21.4522 16.8234 21.102 15.7935 21.102 14.5987C21.102 13.3422 21.5091 12.2916 22.3232 11.4471C23.1364 10.6025 24.1301 10.0669 25.3042 9.84035V7.15217H28.2396V9.84035C29.352 10.0875 30.274 10.5457 31.0056 11.2147C31.7365 11.8846 32.277 12.7242 32.6272 13.7336L29.5064 15.0313C29.2799 14.4133 28.935 13.9293 28.472 13.5791C28.0081 13.2289 27.4156 13.0538 26.6947 13.0538C25.9325 13.0538 25.3817 13.1926 25.0422 13.4703C24.7019 13.7488 24.5318 14.094 24.5318 14.506C24.5318 15.0416 24.7633 15.4742 25.2264 15.8038C25.6903 16.1334 26.7256 16.535 28.3323 17.0088C29.836 17.462 30.9896 18.1624 31.7929 19.1099C32.5963 20.0575 32.998 21.1904 32.998 22.5088C32.998 24.0537 32.5448 25.2381 31.6385 26.0621C30.7321 26.886 29.5991 27.4113 28.2396 27.6379V30.3261H25.3042ZM10.1285 43.7082L21.9452 47L35.4499 42.7798V41.0917C35.4499 39.5724 34.9576 38.3485 33.9728 37.4201C32.9881 36.4916 31.7924 36.0274 30.3856 36.0274H27.0095C27.0095 35.0146 26.7214 34.0861 26.1452 33.2421C25.5678 32.398 24.8149 31.8072 23.8865 31.4696L13.4203 27.587H0V46.156H10.1285V43.7082ZM6.75236 42.7798H3.37618V30.9631H6.75236V42.7798ZM31.9049 40.332L21.8608 43.455L10.1285 40.2476V30.9631H12.8295L22.7048 34.5925C22.958 34.6769 23.1764 34.8598 23.3598 35.1412C23.5421 35.4225 23.6333 35.7179 23.6333 36.0274C22.4516 36.0274 21.5232 35.9852 20.8479 35.9008C20.1727 35.8164 19.5819 35.6898 19.0754 35.521L15.6992 34.4237L14.7286 37.6311L17.6406 38.644C18.4565 38.9253 19.2161 39.1222 19.9195 39.2348C20.6228 39.3473 21.4106 39.4036 22.2828 39.4036H30.3856C30.7233 39.4036 31.0395 39.4807 31.3343 39.6349C31.6303 39.7902 31.8205 40.0226 31.9049 40.332Z" fill="#18C3D9"/>
</g>
</svg>
