<svg width="48" height="39" viewBox="0 0 48 39" fill="none" xmlns="http://www.w3.org/2000/svg">
<g opacity="0.6">
<path d="M4.75676 38.8571C3.42342 38.8571 2.29766 38.3802 1.37946 37.4262C0.45982 36.4738 0 35.306 0 33.9229C0 32.5772 0.468468 31.4281 1.40541 30.4757C2.34234 29.5217 3.45946 29.0447 4.75676 29.0447H5.37946C5.57694 29.0447 5.76577 29.0821 5.94595 29.1569L15.0811 19.737C15.009 19.5127 14.973 19.2974 14.973 19.091V18.4473C14.973 17.1016 15.4328 15.9518 16.3524 14.9978C17.2706 14.0454 18.3784 13.5692 19.6757 13.5692C20.973 13.5692 22.0814 14.0454 23.0011 14.9978C23.9193 15.9518 24.3784 17.1016 24.3784 18.4473C24.3784 18.5969 24.3423 19.008 24.2703 19.6809L29.2973 24.8955C29.5135 24.8207 29.7117 24.7833 29.8919 24.7833H31.1092C31.3067 24.7833 31.4955 24.8207 31.6757 24.8955L38.6486 17.6623C38.5766 17.4754 38.5405 17.2788 38.5405 17.0725V16.4288C38.5405 15.0831 39.0004 13.9243 39.92 12.9524C40.8382 11.9805 41.9459 11.4945 43.2432 11.4945C44.5766 11.4945 45.7031 11.9708 46.6227 12.9232C47.5409 13.8772 48 15.0457 48 16.4288C48 17.7745 47.5315 18.9236 46.5946 19.876C45.6577 20.83 44.5405 21.3069 43.2432 21.3069H42.6227C42.4238 21.3069 42.2342 21.2696 42.0541 21.1948L35.0811 28.4279C35.1532 28.6149 35.1892 28.8107 35.1892 29.0156V29.6615C35.1892 31.0072 34.7301 32.157 33.8119 33.111C32.8923 34.0634 31.7838 34.5397 30.4865 34.5397C29.1892 34.5397 28.0814 34.0634 27.1632 33.111C26.2436 32.157 25.7838 31.0072 25.7838 29.6615V29.0156C25.7838 28.8107 25.8198 28.5962 25.8919 28.3719L20.9189 23.2134C20.7027 23.2881 20.4959 23.3255 20.2984 23.3255H19.6757C19.5315 23.3255 19.1351 23.2881 18.4865 23.2134L9.35135 32.6893C9.42342 32.9136 9.45946 33.1192 9.45946 33.3061V33.9229C9.45946 35.2686 9.00036 36.4274 8.08216 37.3993C7.16252 38.3712 6.05405 38.8571 4.75676 38.8571ZM6.7027 16.4848L5.24324 13.2327L2.10811 11.7188L5.24324 10.2049L6.7027 6.95279L8.16216 10.2049L11.2973 11.7188L8.16216 13.2327L6.7027 16.4848ZM30.4865 14.4663L28.2703 9.53205L23.5135 7.23315L28.2703 4.93424L30.4865 0L32.7027 4.93424L37.4595 7.23315L32.7027 9.53205L30.4865 14.4663Z" fill="#4732BA"/>
</g>
</svg>
