<svg width="40" height="40" viewBox="0 0 40 40" fill="none" xmlns="http://www.w3.org/2000/svg">
<mask id="mask0_1_2850" style="mask-type:alpha" maskUnits="userSpaceOnUse" x="0" y="0" width="40" height="40">
<rect width="40" height="40" fill="#D9D9D9"/>
</mask>
<g mask="url(#mask0_1_2850)">
<path fill-rule="evenodd" clip-rule="evenodd" d="M30.083 36.916H9.167C8.30567 36.916 7.56233 36.6037 6.937 35.979C6.31233 35.3537 6 34.6107 6 33.75V6.166C6 5.30533 6.31233 4.56233 6.937 3.937C7.56233 3.31233 8.30567 3 9.167 3H21.792C22.2087 3 22.6113 3.08333 23 3.25C23.3887 3.41667 23.736 3.65267 24.042 3.958L32.292 12.208C32.5973 12.5133 32.8333 12.8607 33 13.25C33.1667 13.6387 33.25 14.0413 33.25 14.458V33.75C33.25 34.6107 32.9377 35.3537 32.313 35.979C31.6877 36.6037 30.9443 36.916 30.083 36.916ZM18.9093 29.7381C19.0751 29.9127 19.2888 30 19.5506 30C19.8123 30 20.0302 29.9127 20.2044 29.7381C20.379 29.5639 20.4663 29.3459 20.4663 29.0842V27.8017C21.6878 27.6099 22.6387 27.178 23.3191 26.5059C23.9996 25.8342 24.3398 24.9227 24.3398 23.7711C24.3398 22.7071 24.0387 21.8173 23.4366 21.1017C22.8349 20.3865 21.9321 19.8369 20.7282 19.453C19.3498 19.0342 18.412 18.6417 17.915 18.2753C17.4175 17.9089 17.1688 17.4204 17.1688 16.8099C17.1688 16.2517 17.3782 15.8024 17.7969 15.462C18.2156 15.122 18.8088 14.952 19.5763 14.952C20.0474 14.952 20.4487 15.0217 20.7804 15.1612C21.112 15.3006 21.3999 15.51 21.644 15.7893C21.8358 15.9986 22.0539 16.1469 22.2985 16.234C22.5426 16.3215 22.7694 16.3129 22.9787 16.2082C23.2404 16.1035 23.4192 15.9247 23.5151 15.6718C23.611 15.4185 23.5804 15.1871 23.4234 14.9778C23.0922 14.5067 22.6779 14.1185 22.1804 13.8133C21.6834 13.508 21.112 13.303 20.4663 13.1983V11.9158C20.4663 11.6541 20.379 11.4361 20.2044 11.2619C20.0302 11.0873 19.8123 11 19.5506 11C19.2888 11 19.0751 11.0873 18.9093 11.2619C18.7434 11.4361 18.6605 11.6541 18.6605 11.9158V13.1983C17.6836 13.303 16.8723 13.6826 16.2267 14.3371C15.581 14.9912 15.2581 15.8242 15.2581 16.8363C15.2581 17.8308 15.5592 18.6639 16.1613 19.3355C16.7631 20.0072 17.727 20.5523 19.0531 20.9711C20.3964 21.4074 21.295 21.8217 21.7489 22.2141C22.2024 22.6069 22.4291 23.152 22.4291 23.8497C22.4291 24.5301 22.1762 25.0579 21.6704 25.4331C21.1641 25.8083 20.5185 25.9959 19.7333 25.9959C19.1052 25.9959 18.5515 25.8562 18.072 25.5769C17.5921 25.298 17.2038 24.8881 16.9069 24.3471C16.7674 24.103 16.5801 23.9286 16.3447 23.8239C16.109 23.7192 15.8776 23.7192 15.6507 23.8239C15.389 23.9286 15.2016 24.1074 15.0885 24.3603C14.9751 24.6132 14.9707 24.8531 15.0753 25.0801C15.4242 25.8129 15.8996 26.406 16.5018 26.8595C17.1035 27.313 17.8231 27.6182 18.6605 27.7753V29.0842C18.6605 29.3459 18.7434 29.5639 18.9093 29.7381Z" fill="#1CD2AD"/>
</g>
</svg>
