<svg width="40" height="40" viewBox="0 0 40 40" fill="none" xmlns="http://www.w3.org/2000/svg">
<mask id="mask0_1_2849" style="mask-type:alpha" maskUnits="userSpaceOnUse" x="0" y="0" width="40" height="40">
<rect width="40" height="40" fill="#D9D9D9"/>
</mask>
<g mask="url(#mask0_1_2849)">
<path d="M30.458 36.958H9.542C8.68067 36.958 7.93733 36.6457 7.312 36.021C6.68733 35.3957 6.375 34.6527 6.375 33.792V6.20799C6.375 5.34733 6.68733 4.60433 7.312 3.97899C7.93733 3.35433 8.68067 3.04199 9.542 3.04199H22.167C22.5837 3.04199 22.9863 3.12533 23.375 3.29199C23.7637 3.45866 24.111 3.69466 24.417 3.99999L32.667 12.25C32.9723 12.5553 33.2083 12.9027 33.375 13.292C33.5417 13.6807 33.625 14.0833 33.625 14.5V33.792C33.625 34.6527 33.3127 35.3957 32.688 36.021C32.0627 36.6457 31.3193 36.958 30.458 36.958ZM30.458 33.792V14.583L22.083 6.20799H9.542V33.792H30.458Z" fill="#AAAAAA"/>
<path d="M19.5506 29C19.2888 29 19.0751 28.9127 18.9093 28.7381C18.7434 28.5639 18.6605 28.3459 18.6605 28.0842V26.7753C17.8231 26.6182 17.1035 26.313 16.5018 25.8595C15.8996 25.406 15.4242 24.8129 15.0753 24.0801C14.9707 23.8531 14.9751 23.6132 15.0885 23.3603C15.2016 23.1074 15.389 22.9286 15.6507 22.8239C15.8776 22.7192 16.109 22.7192 16.3447 22.8239C16.5801 22.9286 16.7674 23.103 16.9069 23.3471C17.2038 23.8881 17.5921 24.298 18.072 24.5769C18.5515 24.8562 19.1052 24.9959 19.7333 24.9959C20.5185 24.9959 21.1641 24.8083 21.6704 24.4331C22.1762 24.0579 22.4291 23.5301 22.4291 22.8497C22.4291 22.152 22.2024 21.6069 21.7489 21.2141C21.295 20.8217 20.3964 20.4074 19.0531 19.9711C17.727 19.5523 16.7631 19.0072 16.1613 18.3355C15.5592 17.6639 15.2581 16.8308 15.2581 15.8363C15.2581 14.8242 15.581 13.9912 16.2267 13.3371C16.8723 12.6826 17.6836 12.303 18.6605 12.1983V10.9158C18.6605 10.6541 18.7434 10.4361 18.9093 10.2619C19.0751 10.0873 19.2888 10 19.5506 10C19.8123 10 20.0302 10.0873 20.2044 10.2619C20.379 10.4361 20.4663 10.6541 20.4663 10.9158V12.1983C21.112 12.303 21.6834 12.508 22.1804 12.8133C22.6779 13.1185 23.0922 13.5067 23.4234 13.9778C23.5804 14.1871 23.611 14.4185 23.5151 14.6718C23.4192 14.9247 23.2404 15.1035 22.9787 15.2082C22.7694 15.3129 22.5426 15.3215 22.2985 15.234C22.0539 15.1469 21.8358 14.9986 21.644 14.7893C21.3999 14.51 21.112 14.3006 20.7804 14.1612C20.4487 14.0217 20.0474 13.952 19.5763 13.952C18.8088 13.952 18.2156 14.122 17.7969 14.462C17.3782 14.8024 17.1688 15.2517 17.1688 15.8099C17.1688 16.4204 17.4175 16.9089 17.915 17.2753C18.412 17.6417 19.3498 18.0342 20.7282 18.453C21.9321 18.8369 22.8349 19.3865 23.4366 20.1017C24.0387 20.8173 24.3398 21.7071 24.3398 22.7711C24.3398 23.9227 23.9996 24.8342 23.3191 25.5059C22.6387 26.178 21.6878 26.6099 20.4663 26.8017V28.0842C20.4663 28.3459 20.379 28.5639 20.2044 28.7381C20.0302 28.9127 19.8123 29 19.5506 29Z" fill="#AAAAAA"/>
</g>
</svg>
