<svg width="40" height="40" viewBox="0 0 40 40" fill="none" xmlns="http://www.w3.org/2000/svg">
<mask id="mask0_1_2855" style="mask-type:alpha" maskUnits="userSpaceOnUse" x="0" y="0" width="40" height="40">
<rect width="40" height="40" fill="#D9D9D9"/>
</mask>
<g mask="url(#mask0_1_2855)">
<path d="M25.375 27.4583C25.0139 27.0417 24.8334 26.5761 24.8334 26.0617C24.8334 25.5483 25.0139 25.1111 25.375 24.75L28.25 21.9167H16.7084C16.1806 21.9167 15.7361 21.7289 15.375 21.3533C15.0139 20.9789 14.8334 20.5278 14.8334 20C14.8334 19.4722 15.0139 19.0211 15.375 18.6467C15.7361 18.2711 16.1806 18.0833 16.7084 18.0833H28.25L25.375 15.25C24.9861 14.8611 24.7984 14.4094 24.8117 13.895C24.8261 13.3817 25.0139 12.9305 25.375 12.5417C25.7361 12.1805 26.1739 12 26.6884 12C27.2017 12 27.6389 12.1805 28 12.5417L34.1667 18.6667C34.3334 18.8611 34.4584 19.0694 34.5417 19.2917C34.625 19.5139 34.6667 19.75 34.6667 20C34.6667 20.25 34.625 20.4861 34.5417 20.7083C34.4584 20.9305 34.3334 21.1389 34.1667 21.3333L28 27.5C27.5834 27.8889 27.1322 28.0622 26.6467 28.02C26.16 27.9789 25.7361 27.7917 25.375 27.4583ZM8.33335 35.3333C7.2778 35.3333 6.38224 34.9655 5.64669 34.23C4.91002 33.4933 4.54169 32.5972 4.54169 31.5417V8.45832C4.54169 7.40277 4.91002 6.50666 5.64669 5.76999C6.38224 5.03443 7.2778 4.66666 8.33335 4.66666H18.1667C18.7222 4.66666 19.1806 4.84721 19.5417 5.20832C19.9028 5.56943 20.0834 6.01388 20.0834 6.54166C20.0834 7.09721 19.9028 7.55555 19.5417 7.91666C19.1806 8.27777 18.7222 8.45832 18.1667 8.45832H8.33335V31.5417H18.1667C18.7222 31.5417 19.1806 31.7222 19.5417 32.0833C19.9028 32.4444 20.0834 32.9028 20.0834 33.4583C20.0834 33.9861 19.9028 34.4305 19.5417 34.7917C19.1806 35.1528 18.7222 35.3333 18.1667 35.3333H8.33335Z" fill="#AAAAAA"/>
</g>
</svg>
