<svg width="24" height="24" viewBox="0 0 24 24" fill="none" xmlns="http://www.w3.org/2000/svg">
<mask id="mask0_1_143" style="mask-type:alpha" maskUnits="userSpaceOnUse" x="0" y="0" width="24" height="24">
<rect width="24" height="24" fill="#D9D9D9"/>
</mask>
<g mask="url(#mask0_1_143)">
<path d="M4.80002 19.175C4.48336 19.175 4.21269 19.0667 3.98802 18.85C3.76269 18.6334 3.65002 18.3584 3.65002 18.025C3.65002 17.7084 3.76269 17.4417 3.98802 17.225C4.21269 17.0084 4.48336 16.9 4.80002 16.9H5.72502V10.125C5.72502 8.67502 6.15436 7.39169 7.01302 6.27502C7.87102 5.15836 8.98336 4.42502 10.35 4.07502V3.40002C10.35 2.95002 10.5127 2.56669 10.838 2.25002C11.1627 1.93336 11.55 1.77502 12 1.77502C12.45 1.77502 12.8377 1.93336 13.163 2.25002C13.4877 2.56669 13.65 2.95002 13.65 3.40002V4.07502C15.0334 4.42502 16.15 5.15836 17 6.27502C17.85 7.39169 18.275 8.67502 18.275 10.125V16.9H19.2C19.5334 16.9 19.8084 17.0084 20.025 17.225C20.2417 17.4417 20.35 17.7084 20.35 18.025C20.35 18.3584 20.2417 18.6334 20.025 18.85C19.8084 19.0667 19.5334 19.175 19.2 19.175H4.80002ZM12 22.2C11.4334 22.2 10.946 22 10.538 21.6C10.1294 21.2 9.92502 20.7167 9.92502 20.15H14.075C14.075 20.7167 13.871 21.2 13.463 21.6C13.0544 22 12.5667 22.2 12 22.2ZM8.00002 16.9H16V10.125C16 9.02502 15.6084 8.08336 14.825 7.30002C14.0417 6.51669 13.1 6.12502 12 6.12502C10.9 6.12502 9.95836 6.51669 9.17502 7.30002C8.39169 8.08336 8.00002 9.02502 8.00002 10.125V16.9Z" fill="white"/>
</g>
</svg>
