<svg width="40" height="40" viewBox="0 0 40 40" fill="none" xmlns="http://www.w3.org/2000/svg">
<mask id="mask0_1_2861" style="mask-type:alpha" maskUnits="userSpaceOnUse" x="0" y="0" width="40" height="40">
<rect width="40" height="40" fill="#D9D9D9"/>
</mask>
<g mask="url(#mask0_1_2861)">
<path d="M6.79167 33.667C5.73611 33.667 4.84 33.2992 4.10333 32.5637C3.36778 31.827 3 30.9309 3 29.8753V9.95866C3 8.9031 3.36778 8.00699 4.10333 7.27033C4.84 6.53477 5.73611 6.16699 6.79167 6.16699H14.9583C15.4583 6.16699 15.9378 6.26421 16.3967 6.45866C16.8544 6.6531 17.2639 6.93088 17.625 7.29199L20 9.66699H33.2083C34.2639 9.66699 35.16 10.0353 35.8967 10.772C36.6322 11.5075 37 12.4031 37 13.4587V29.8753C37 30.9309 36.6322 31.827 35.8967 32.5637C35.16 33.2992 34.2639 33.667 33.2083 33.667H6.79167Z" fill="#1CD2AD"/>
</g>
</svg>
