<svg width="40" height="40" viewBox="0 0 40 40" fill="none" xmlns="http://www.w3.org/2000/svg">
<mask id="mask0_1_2847" style="mask-type:alpha" maskUnits="userSpaceOnUse" x="0" y="0" width="40" height="40">
<rect width="40" height="40" fill="#D9D9D9"/>
</mask>
<g mask="url(#mask0_1_2847)">
<path d="M6.25001 33.625C5.38867 33.625 4.64567 33.3057 4.02101 32.667C3.39567 32.0277 3.08301 31.2913 3.08301 30.458V9.417C3.08301 8.58367 3.39567 7.84733 4.02101 7.208C4.64567 6.56933 5.38867 6.25 6.25001 6.25H15.833C16.2497 6.25 16.6527 6.33333 17.042 6.5C17.4307 6.66667 17.764 6.90267 18.042 7.208L20.042 9.167H33.833C34.6663 9.167 35.4027 9.47933 36.042 10.104C36.6807 10.7293 37 11.4723 37 12.333V30.458C37 31.2913 36.6807 32.0277 36.042 32.667C35.4027 33.3057 34.6663 33.625 33.833 33.625H6.25001ZM6.25001 9.417V30.458H33.833V12.333H18.708L15.833 9.417H6.25001Z" fill="#AAAAAA"/>
</g>
</svg>
