<svg width="40" height="40" viewBox="0 0 40 40" fill="none" xmlns="http://www.w3.org/2000/svg">
<mask id="mask0_1_2846" style="mask-type:alpha" maskUnits="userSpaceOnUse" x="0" y="0" width="40" height="40">
<rect width="40" height="40" fill="#D9D9D9"/>
</mask>
<g mask="url(#mask0_1_2846)">
<path d="M14.75 29.75H25.25C25.6667 29.75 26.014 29.611 26.292 29.333C26.5693 29.0557 26.708 28.7087 26.708 28.292C26.708 27.8753 26.5693 27.528 26.292 27.25C26.014 26.972 25.6667 26.833 25.25 26.833H14.75C14.3333 26.833 13.986 26.972 13.708 27.25C13.4307 27.528 13.292 27.8753 13.292 28.292C13.292 28.7087 13.4307 29.0557 13.708 29.333C13.986 29.611 14.3333 29.75 14.75 29.75ZM14.75 22.792H25.25C25.6667 22.792 26.014 22.653 26.292 22.375C26.5693 22.097 26.708 21.7497 26.708 21.333C26.708 20.9163 26.5693 20.576 26.292 20.312C26.014 20.0487 25.6667 19.917 25.25 19.917H14.75C14.3333 19.917 13.986 20.0557 13.708 20.333C13.4307 20.611 13.292 20.9443 13.292 21.333C13.292 21.7497 13.4307 22.097 13.708 22.375C13.986 22.653 14.3333 22.792 14.75 22.792ZM9.542 36.958C8.68067 36.958 7.93733 36.6457 7.312 36.021C6.68733 35.3957 6.375 34.6527 6.375 33.792V6.20799C6.375 5.34733 6.68733 4.60433 7.312 3.97899C7.93733 3.35433 8.68067 3.04199 9.542 3.04199H22.708C23.1527 3.04199 23.5693 3.12533 23.958 3.29199C24.3473 3.45866 24.6807 3.69466 24.958 3.99999L32.667 11.708C32.9723 11.986 33.2083 12.3193 33.375 12.708C33.5417 13.0973 33.625 13.514 33.625 13.958V33.792C33.625 34.6527 33.3127 35.3957 32.688 36.021C32.0627 36.6457 31.3193 36.958 30.458 36.958H9.542ZM22.417 12.583V6.20799H9.542V33.792H30.458V14.167H24C23.5553 14.167 23.1803 14.014 22.875 13.708C22.5697 13.4027 22.417 13.0277 22.417 12.583Z" fill="#AAAAAA"/>
</g>
</svg>
