<svg width="20" height="20" viewBox="0 0 20 20" fill="none" xmlns="http://www.w3.org/2000/svg">
<mask id="mask0_1_137" style="mask-type:alpha" maskUnits="userSpaceOnUse" x="0" y="0" width="20" height="20">
<rect width="20" height="20" fill="#D9D9D9"/>
</mask>
<g mask="url(#mask0_1_137)">
<path d="M15.6656 17.0207L11.0406 12.3957C10.6239 12.7152 10.1447 12.9721 9.60306 13.1665C9.06139 13.361 8.485 13.4582 7.87389 13.4582C6.33222 13.4582 5.02667 12.9199 3.95722 11.8432C2.88778 10.7671 2.35306 9.45821 2.35306 7.91655C2.35306 6.37488 2.88778 5.06571 3.95722 3.98905C5.02667 2.91293 6.33222 2.37488 7.87389 2.37488C9.41556 2.37488 10.7247 2.91293 11.8014 3.98905C12.8775 5.06571 13.4156 6.37488 13.4156 7.91655C13.4156 8.52766 13.3219 9.10405 13.1347 9.64571C12.9469 10.1874 12.6933 10.6596 12.3739 11.0624L17.0197 15.729C17.1864 15.8957 17.2697 16.1077 17.2697 16.3649C17.2697 16.6215 17.1794 16.8402 16.9989 17.0207C16.8183 17.2013 16.5928 17.2915 16.3222 17.2915C16.0511 17.2915 15.8322 17.2013 15.6656 17.0207ZM7.87389 11.5415C8.88778 11.5415 9.74889 11.1907 10.4572 10.489C11.1656 9.78793 11.5197 8.93043 11.5197 7.91655C11.5197 6.90266 11.1656 6.04488 10.4572 5.34321C9.74889 4.6421 8.88778 4.29155 7.87389 4.29155C6.86 4.29155 6.0025 4.6421 5.30139 5.34321C4.59972 6.04488 4.24889 6.90266 4.24889 7.91655C4.24889 8.93043 4.59972 9.78793 5.30139 10.489C6.0025 11.1907 6.86 11.5415 7.87389 11.5415Z" fill="white"/>
</g>
</svg>
