<svg width="40" height="40" viewBox="0 0 40 40" fill="none" xmlns="http://www.w3.org/2000/svg">
<mask id="mask0_1_2865" style="mask-type:alpha" maskUnits="userSpaceOnUse" x="0" y="0" width="40" height="40">
<rect width="40" height="40" fill="#D9D9D9"/>
</mask>
<g mask="url(#mask0_1_2865)">
<path fill-rule="evenodd" clip-rule="evenodd" d="M15.5299 36.6147C15.8196 36.8716 16.158 37 16.5451 37H22.428C22.8151 37 23.1536 36.8716 23.4433 36.6147C23.7336 36.3585 23.9063 36.041 23.9613 35.6621L24.5828 31.7702C25.025 31.6352 25.4669 31.4325 25.9084 31.162C26.3505 30.8922 26.7513 30.622 27.1106 30.3515L30.7978 31.9735C31.1843 32.1357 31.5642 32.1558 31.9374 32.0338C32.31 31.9125 32.607 31.6625 32.8284 31.2837L35.7698 26.2572C35.9634 25.9329 36.0118 25.5813 35.915 25.2025C35.8182 24.8243 35.618 24.5136 35.3144 24.2703L31.9583 21.8787C32.0133 21.6621 32.0478 21.4321 32.0617 21.1889C32.0756 20.9456 32.0826 20.716 32.0826 20.5C32.0826 20.284 32.0756 20.0544 32.0617 19.8111C32.0478 19.5679 32.0133 19.3379 31.9583 19.1213L35.3144 16.7297C35.6458 16.4864 35.8596 16.1757 35.9557 15.7975C36.0525 15.4187 35.9906 15.0538 35.7698 14.7029L32.8284 9.67546C32.6348 9.32389 32.3448 9.09426 31.9583 8.98658C31.5711 8.87826 31.1982 8.89156 30.8396 9.02648L27.1106 10.6485C26.7791 10.378 26.3784 10.1146 25.9084 9.85839C25.439 9.60152 24.9972 9.392 24.5828 9.22983L23.9613 5.297C23.9063 4.91883 23.7336 4.60812 23.4433 4.36487C23.1536 4.12162 22.8151 4 22.428 4H16.5451C16.158 4 15.8196 4.12162 15.5299 4.36487C15.2395 4.60812 15.0668 4.91883 15.0118 5.297L14.3903 9.26973C13.9759 9.4053 13.5407 9.60152 13.0846 9.85839C12.6292 10.1146 12.2218 10.378 11.8625 10.6485L8.13354 9.02648C7.77489 8.89156 7.402 8.87826 7.01484 8.98658C6.62836 9.09426 6.33832 9.32389 6.14475 9.67546L3.20332 14.7428C3.00975 15.0671 2.95439 15.4187 3.03726 15.7975C3.12013 16.1757 3.32729 16.4864 3.65876 16.7297L6.97407 19.1621C6.94623 19.3515 6.92535 19.5679 6.91143 19.8111C6.89751 20.0544 6.89054 20.284 6.89054 20.5C6.89054 20.716 6.89751 20.9456 6.91143 21.1889C6.92535 21.4321 6.94623 21.6485 6.97407 21.8379L3.65876 24.2703C3.32729 24.5136 3.12013 24.8243 3.03726 25.2025C2.95439 25.5813 3.00975 25.9329 3.20332 26.2572L6.14475 31.3245C6.33832 31.6761 6.62836 31.9125 7.01484 32.0338C7.402 32.1558 7.77489 32.1357 8.13354 31.9735L11.8625 30.3515C12.2218 30.622 12.6292 30.8857 13.0846 31.1426C13.5407 31.3988 13.9759 31.608 14.3903 31.7702L15.0118 35.6621C15.0668 36.041 15.2395 36.3585 15.5299 36.6147Z" fill="#1CD2AD"/>
<path d="M21.2674 30.007C21.0035 30.007 20.7544 29.9631 20.5198 29.8751C20.2853 29.7872 20.0654 29.6406 19.8602 29.4354L12.2967 21.8719C11.9156 21.4908 11.7327 21.0141 11.7479 20.4419C11.762 19.8708 11.9596 19.3947 12.3407 19.0136C12.7218 18.6325 13.1985 18.4419 13.7707 18.4419C14.3418 18.4419 14.8032 18.6325 15.155 19.0136L21.2674 25.1259L35.9986 10.3947C36.3504 10.0136 36.8194 9.82309 37.4057 9.82309C37.9921 9.82309 38.4758 10.0136 38.8569 10.3947C39.2087 10.7759 39.3846 11.2519 39.3846 11.823C39.3846 12.3953 39.2087 12.8719 38.8569 13.253L22.6745 29.4354C22.4693 29.6406 22.2495 29.7872 22.0149 29.8751C21.7804 29.9631 21.5312 30.007 21.2674 30.007Z" fill="white"/>
</g>
</svg>
