<svg width="40" height="40" viewBox="0 0 40 40" fill="none" xmlns="http://www.w3.org/2000/svg">
<mask id="mask0_1_2854" style="mask-type:alpha" maskUnits="userSpaceOnUse" x="0" y="0" width="40" height="40">
<rect width="40" height="40" fill="#D9D9D9"/>
</mask>
<g mask="url(#mask0_1_2854)">
<path fill-rule="evenodd" clip-rule="evenodd" d="M16.3074 37H22.6819C23.151 37 23.5583 36.8452 23.9038 36.5357C24.1906 36.2771 24.3867 35.9671 24.4921 35.606L21.113 32.3804L20.9848 33.3199H17.9631L17.425 29.0735C16.5419 28.8578 15.7279 28.5343 14.9828 28.1029C14.2377 27.6716 13.5479 27.1458 12.9132 26.5257L8.85668 28.1838L7.36654 25.636L10.8849 23.0478C10.747 22.6164 10.6437 22.1915 10.5753 21.7731C10.5058 21.3557 10.471 20.9314 10.471 20.5C10.471 20.0417 10.5058 19.6038 10.5753 19.1865C10.6437 18.768 10.747 18.3566 10.8849 17.9522L7.36654 15.364L8.85668 12.8162L12.9132 14.4743C13.5479 13.8542 14.2377 13.3284 14.9828 12.8971C15.7279 12.4657 16.5419 12.1422 17.425 11.9265L17.9631 7.68015H21.0262L21.5643 11.9265C22.4473 12.1422 23.2614 12.4657 24.0064 12.8971C24.7515 13.3284 25.4276 13.8676 26.0347 14.5147L27.7279 13.8129L31.9299 8.90905C31.8095 8.84224 31.6796 8.78957 31.5399 8.75103C31.0984 8.63025 30.6569 8.65074 30.2154 8.8125L26.697 10.2279C26.421 10.0392 26.1522 9.86397 25.8906 9.70221C25.6279 9.54044 25.331 9.40564 24.9999 9.29779L24.5445 5.61765C24.4618 5.13235 24.2482 4.74142 23.9038 4.44485C23.5583 4.14828 23.151 4 22.6819 4H16.3074C15.8383 4 15.4315 4.14828 15.0871 4.44485C14.7416 4.74142 14.5275 5.13235 14.4447 5.61765L13.9894 9.29779C13.6858 9.40564 13.3961 9.54044 13.1201 9.70221C12.8442 9.86397 12.582 10.0392 12.3337 10.2279L8.7739 8.8125C8.33237 8.65074 7.88423 8.63025 7.42946 8.75103C6.97359 8.87289 6.63527 9.13603 6.41451 9.54044L3.26866 14.9191C3.0203 15.3235 2.94414 15.7549 3.04017 16.2132C3.1373 16.6716 3.36524 17.0355 3.72398 17.3051L6.74565 19.5699V21.4301L3.72398 23.6949C3.36524 23.9645 3.1373 24.3284 3.04017 24.7868C2.94414 25.2451 3.0203 25.6765 3.26866 26.0809L6.41451 31.4596C6.66286 31.864 7.0078 32.1336 7.44933 32.2684C7.89085 32.4032 8.33237 32.3897 8.7739 32.2279L12.2923 30.7721C12.5682 30.9608 12.837 31.136 13.0986 31.2978C13.3613 31.4596 13.6582 31.6078 13.9894 31.7426L14.4447 35.3824C14.5275 35.8407 14.7416 36.2251 15.0871 36.5357C15.4315 36.8452 15.8383 37 16.3074 37Z" fill="#AAAAAA"/>
<path d="M21.3273 29.9946C21.0624 29.9946 20.8122 29.9505 20.5768 29.8622C20.3413 29.7739 20.1206 29.6267 19.9146 29.4207L12.3211 21.8273C11.9385 21.4447 11.7549 20.9661 11.7702 20.3916C11.7843 19.8183 11.9827 19.3403 12.3653 18.9577C12.7479 18.5751 13.2265 18.3838 13.801 18.3838C14.3743 18.3838 14.8376 18.5751 15.1907 18.9577L21.3273 25.0942L36.1168 10.3047C36.47 9.92208 36.9409 9.73077 37.5296 9.73077C38.1182 9.73077 38.6038 9.92208 38.9865 10.3047C39.3396 10.6873 39.5162 11.1653 39.5162 11.7386C39.5162 12.3131 39.3396 12.7917 38.9865 13.1743L22.74 29.4207C22.534 29.6267 22.3133 29.7739 22.0778 29.8622C21.8424 29.9505 21.5922 29.9946 21.3273 29.9946Z" fill="#AAAAAA"/>
</g>
</svg>
