<svg width="40" height="40" viewBox="0 0 40 40" fill="none" xmlns="http://www.w3.org/2000/svg">
<mask id="mask0_1_2853" style="mask-type:alpha" maskUnits="userSpaceOnUse" x="0" y="0" width="40" height="40">
<rect width="40" height="40" fill="#D9D9D9"/>
</mask>
<g mask="url(#mask0_1_2853)">
<path d="M23.2083 37H16.7917C16.3195 37 15.91 36.8406 15.5633 36.5217C15.2156 36.2017 15 35.8056 14.9167 35.3333L14.4583 31.5833C14.125 31.4444 13.8261 31.2917 13.5617 31.125C13.2983 30.9583 13.0278 30.7778 12.75 30.5833L9.20834 32.0833C8.7639 32.25 8.31945 32.2639 7.87501 32.125C7.43056 31.9861 7.08334 31.7083 6.83334 31.2917L3.66667 25.75C3.41667 25.3333 3.34001 24.8889 3.43667 24.4167C3.53445 23.9444 3.76389 23.5694 4.12501 23.2917L7.16667 20.9583V19.0417L4.12501 16.7083C3.76389 16.4306 3.53445 16.0556 3.43667 15.5833C3.34001 15.1111 3.41667 14.6667 3.66667 14.25L6.83334 8.70833C7.05556 8.29167 7.39612 8.02056 7.85501 7.895C8.31278 7.77056 8.7639 7.79167 9.20834 7.95833L12.7917 9.41667C13.0417 9.22222 13.3056 9.04167 13.5833 8.875C13.8611 8.70833 14.1528 8.56944 14.4583 8.45833L14.9167 4.66667C15 4.16667 15.2156 3.76389 15.5633 3.45833C15.91 3.15278 16.3195 3 16.7917 3H23.2083C23.6806 3 24.0906 3.15278 24.4383 3.45833C24.785 3.76389 25 4.16667 25.0833 4.66667L25.5417 8.45833C25.875 8.56944 26.1739 8.70833 26.4383 8.875C26.7017 9.04167 26.9722 9.22222 27.25 9.41667L30.7917 7.95833C31.2361 7.79167 31.6806 7.77056 32.125 7.895C32.5695 8.02056 32.9167 8.29167 33.1667 8.70833L36.3333 14.25C36.5833 14.6667 36.6667 15.1111 36.5833 15.5833C36.5 16.0556 36.2639 16.4306 35.875 16.7083L32.7917 19.0417C32.8195 19.2083 32.8333 19.3678 32.8333 19.52V20.4783C32.8333 20.6317 32.8056 20.7917 32.75 20.9583L35.8333 23.2917C36.1945 23.5694 36.4239 23.9444 36.5217 24.4167C36.6183 24.8889 36.5417 25.3333 36.2917 25.75L33.125 31.25C32.875 31.6667 32.5211 31.9511 32.0633 32.1033C31.6045 32.2567 31.1528 32.25 30.7083 32.0833L27.2083 30.5833C26.9583 30.7778 26.6945 30.9583 26.4167 31.125C26.1389 31.2917 25.8472 31.4444 25.5417 31.5833L25.0833 35.3333C25 35.8056 24.785 36.2017 24.4383 36.5217C24.0906 36.8406 23.6806 37 23.2083 37ZM20.0417 25.8333C21.6528 25.8333 23.0278 25.2639 24.1667 24.125C25.3056 22.9861 25.875 21.6111 25.875 20C25.875 18.3889 25.3056 17.0139 24.1667 15.875C23.0278 14.7361 21.6528 14.1667 20.0417 14.1667C18.4306 14.1667 17.0556 14.7361 15.9167 15.875C14.7778 17.0139 14.2083 18.3889 14.2083 20C14.2083 21.6111 14.7778 22.9861 15.9167 24.125C17.0556 25.2639 18.4306 25.8333 20.0417 25.8333ZM20.0417 22.5C19.3472 22.5 18.7572 22.2567 18.2717 21.77C17.785 21.2844 17.5417 20.6944 17.5417 20C17.5417 19.3056 17.785 18.7156 18.2717 18.23C18.7572 17.7433 19.3472 17.5 20.0417 17.5C20.7361 17.5 21.3267 17.7433 21.8133 18.23C22.2989 18.7156 22.5417 19.3056 22.5417 20C22.5417 20.6944 22.2989 21.2844 21.8133 21.77C21.3267 22.2567 20.7361 22.5 20.0417 22.5ZM18.4583 33.2083H21.5L22.0833 28.8333C22.9722 28.6111 23.7917 28.2778 24.5417 27.8333C25.2917 27.3889 25.9722 26.8472 26.5833 26.2083L30.7083 27.9167L32.2083 25.2917L28.625 22.5833C28.7639 22.1944 28.8683 21.7778 28.9383 21.3333C29.0072 20.8889 29.0417 20.4444 29.0417 20C29.0417 19.5556 29.0072 19.1111 28.9383 18.6667C28.8683 18.2222 28.7639 17.8056 28.625 17.4167L32.2083 14.7083L30.7083 12.0833L26.5833 13.8333C25.9722 13.1667 25.2917 12.6111 24.5417 12.1667C23.7917 11.7222 22.9722 11.3889 22.0833 11.1667L21.5417 6.79167H18.4583L17.9167 11.1667C17.0278 11.3889 16.2083 11.7222 15.4583 12.1667C14.7083 12.6111 14.0139 13.1528 13.375 13.7917L9.29167 12.0833L7.79167 14.7083L11.3333 17.375C11.1945 17.7917 11.0906 18.2156 11.0217 18.6467C10.9517 19.0767 10.9167 19.5278 10.9167 20C10.9167 20.4444 10.9517 20.8817 11.0217 21.3117C11.0906 21.7428 11.1945 22.1806 11.3333 22.625L7.79167 25.2917L9.29167 27.9167L13.375 26.2083C14.0139 26.8472 14.7083 27.3889 15.4583 27.8333C16.2083 28.2778 17.0278 28.6111 17.9167 28.8333L18.4583 33.2083Z" fill="#AAAAAA"/>
</g>
</svg>
