<svg width="40" height="40" viewBox="0 0 40 40" fill="none" xmlns="http://www.w3.org/2000/svg">
<mask id="mask0_1_2864" style="mask-type:alpha" maskUnits="userSpaceOnUse" x="0" y="0" width="40" height="40">
<rect width="40" height="40" fill="#D9D9D9"/>
</mask>
<g mask="url(#mask0_1_2864)">
<path d="M22.958 36.958H17.042C16.6527 36.958 16.3123 36.826 16.021 36.562C15.729 36.2987 15.5553 35.9723 15.5 35.583L14.875 31.583C14.4583 31.4163 14.0207 31.2013 13.562 30.938C13.104 30.674 12.6943 30.403 12.333 30.125L8.583 31.792C8.22234 31.9587 7.84734 31.9793 7.458 31.854C7.06934 31.7293 6.77767 31.4863 6.583 31.125L3.625 25.917C3.43034 25.5837 3.37467 25.2223 3.458 24.833C3.54134 24.4443 3.74967 24.125 4.083 23.875L7.417 21.375C7.389 21.1803 7.368 20.958 7.354 20.708C7.34 20.458 7.333 20.222 7.333 20C7.333 19.778 7.34 19.542 7.354 19.292C7.368 19.042 7.389 18.8197 7.417 18.625L4.083 16.125C3.74967 15.875 3.54134 15.5557 3.458 15.167C3.37467 14.7777 3.43034 14.4163 3.625 14.083L6.583 8.87499C6.77767 8.51366 7.06934 8.27766 7.458 8.16699C7.84734 8.05566 8.22234 8.06933 8.583 8.20799L12.333 9.87499C12.6943 9.59699 13.104 9.32633 13.562 9.06299C14.0207 8.79899 14.4583 8.59733 14.875 8.45799L15.5 4.37499C15.5553 3.98633 15.729 3.66699 16.021 3.41699C16.3123 3.16699 16.6527 3.04199 17.042 3.04199H22.958C23.3473 3.04199 23.6877 3.16699 23.979 3.41699C24.271 3.66699 24.4447 3.98633 24.5 4.37499L25.125 8.41699C25.5417 8.58366 25.986 8.79899 26.458 9.06299C26.9307 9.32633 27.3337 9.59699 27.667 9.87499L31.417 8.20799C31.7777 8.06933 32.1527 8.05566 32.542 8.16699C32.9307 8.27766 33.2223 8.51366 33.417 8.87499L36.375 14.042C36.597 14.4027 36.6593 14.7777 36.562 15.167C36.4653 15.5557 36.2503 15.875 35.917 16.125L32.542 18.583C32.5973 18.8057 32.632 19.042 32.646 19.292C32.66 19.542 32.667 19.778 32.667 20C32.667 20.222 32.66 20.458 32.646 20.708C32.632 20.958 32.5973 21.1943 32.542 21.417L35.917 23.875C36.2223 24.125 36.4237 24.4443 36.521 24.833C36.6183 25.2223 36.5697 25.5837 36.375 25.917L33.417 31.083C33.1943 31.4723 32.8957 31.7293 32.521 31.854C32.1457 31.9793 31.7637 31.9587 31.375 31.792L27.667 30.125C27.3057 30.403 26.9027 30.6807 26.458 30.958C26.014 31.236 25.5697 31.4443 25.125 31.583L24.5 35.583C24.4447 35.9723 24.271 36.2987 23.979 36.562C23.6877 36.826 23.3473 36.958 22.958 36.958ZM20 25.542C21.528 25.542 22.8337 25.0003 23.917 23.917C25.0003 22.8337 25.542 21.528 25.542 20C25.542 18.472 25.0003 17.1663 23.917 16.083C22.8337 14.9997 21.528 14.458 20 14.458C18.472 14.458 17.1663 14.9997 16.083 16.083C14.9997 17.1663 14.458 18.472 14.458 20C14.458 21.528 14.9997 22.8337 16.083 23.917C17.1663 25.0003 18.472 25.542 20 25.542Z" fill="#1CD2AD"/>
</g>
</svg>
