<svg width="40" height="40" viewBox="0 0 40 40" fill="none" xmlns="http://www.w3.org/2000/svg">
<mask id="mask0_1_2848" style="mask-type:alpha" maskUnits="userSpaceOnUse" x="0" y="0" width="40" height="40">
<rect width="40" height="40" fill="#D9D9D9"/>
</mask>
<g mask="url(#mask0_1_2848)">
<path d="M9.54201 37.167C8.15267 37.167 6.97901 36.6877 6.02101 35.729C5.06234 34.771 4.58301 33.5973 4.58301 32.208V28.375C4.58301 27.9303 4.73601 27.5553 5.04201 27.25C5.34734 26.9447 5.72234 26.792 6.16701 26.792H9.91701V4.41701C9.91701 4.08367 10.035 3.90301 10.271 3.87501C10.507 3.84701 10.75 3.95801 11 4.20801L12.458 5.70801L14.458 3.70801C14.6247 3.54134 14.8123 3.45801 15.021 3.45801C15.229 3.45801 15.4163 3.54134 15.583 3.70801L17.542 5.70801L19.542 3.70801C19.6807 3.54134 19.861 3.45801 20.083 3.45801C20.3057 3.45801 20.5003 3.54134 20.667 3.70801L22.667 5.70801L24.625 3.70801C24.7917 3.54134 24.9793 3.45801 25.188 3.45801C25.396 3.45801 25.5833 3.54134 25.75 3.70801L27.75 5.70801L29.75 3.70801C29.8887 3.54134 30.0693 3.45801 30.292 3.45801C30.514 3.45801 30.7083 3.54134 30.875 3.70801L32.833 5.70801L34.333 4.20801C34.583 3.95801 34.826 3.84701 35.062 3.87501C35.2987 3.90301 35.417 4.08367 35.417 4.41701V32.208C35.417 33.5973 34.9377 34.771 33.979 35.729C33.021 36.6877 31.8473 37.167 30.458 37.167H9.54201ZM30.458 34C30.986 34 31.4167 33.8333 31.75 33.5C32.0833 33.1667 32.25 32.736 32.25 32.208V8.00001H13.042V26.792H27.083C27.5277 26.792 27.9027 26.9447 28.208 27.25C28.514 27.5553 28.667 27.9303 28.667 28.375V32.208C28.667 32.736 28.8337 33.1667 29.167 33.5C29.5003 33.8333 29.9307 34 30.458 34ZM16.417 14.708C16.0557 14.708 15.743 14.5693 15.479 14.292C15.215 14.014 15.083 13.6807 15.083 13.292C15.083 12.9027 15.215 12.5763 15.479 12.313C15.743 12.049 16.0693 11.917 16.458 11.917H23.5C23.8887 11.917 24.215 12.049 24.479 12.313C24.743 12.5763 24.875 12.9027 24.875 13.292C24.875 13.7087 24.743 14.049 24.479 14.313C24.215 14.5763 23.8887 14.708 23.5 14.708H16.417ZM16.417 20.083C16.0557 20.083 15.743 19.9443 15.479 19.667C15.215 19.389 15.083 19.0557 15.083 18.667C15.083 18.2777 15.215 17.9513 15.479 17.688C15.743 17.424 16.0693 17.292 16.458 17.292H23.5C23.8887 17.292 24.215 17.424 24.479 17.688C24.743 17.9513 24.875 18.2913 24.875 18.708C24.875 19.0973 24.743 19.424 24.479 19.688C24.215 19.9513 23.8887 20.083 23.5 20.083H16.417ZM28.583 14.708C28.1943 14.708 27.861 14.5693 27.583 14.292C27.3057 14.014 27.167 13.6807 27.167 13.292C27.167 12.9307 27.3057 12.611 27.583 12.333C27.861 12.0557 28.1943 11.917 28.583 11.917C28.9443 11.917 29.264 12.0557 29.542 12.333C29.8193 12.611 29.958 12.9307 29.958 13.292C29.958 13.6807 29.8193 14.014 29.542 14.292C29.264 14.5693 28.9443 14.708 28.583 14.708ZM28.583 19.958C28.1943 19.958 27.861 19.8193 27.583 19.542C27.3057 19.264 27.167 18.9307 27.167 18.542C27.167 18.1807 27.3057 17.861 27.583 17.583C27.861 17.3057 28.1943 17.167 28.583 17.167C28.9443 17.167 29.264 17.3057 29.542 17.583C29.8193 17.861 29.958 18.1807 29.958 18.542C29.958 18.9307 29.8193 19.264 29.542 19.542C29.264 19.8193 28.9443 19.958 28.583 19.958ZM9.50001 34H25.5V29.958H7.75001V32.208C7.75001 32.736 7.91667 33.1667 8.25001 33.5C8.58334 33.8333 9.00001 34 9.50001 34Z" fill="#AAAAAA"/>
</g>
</svg>
