<svg width="40" height="40" viewBox="0 0 40 40" fill="none" xmlns="http://www.w3.org/2000/svg">
<mask id="mask0_1_2860" style="mask-type:alpha" maskUnits="userSpaceOnUse" x="0" y="0" width="40" height="40">
<rect width="40" height="40" fill="#D9D9D9"/>
</mask>
<g mask="url(#mask0_1_2860)">
<path d="M10.0417 37.292C8.54171 37.292 7.25671 36.7575 6.18671 35.6886C5.11782 34.6186 4.58337 33.3336 4.58337 31.8336V28.3753C4.58337 27.8475 4.77115 27.4031 5.14671 27.042C5.52115 26.6809 5.97226 26.5003 6.50004 26.5003H9.75004V4.50032C9.75004 4.16698 9.86782 3.96532 10.1034 3.89532C10.34 3.82643 10.5973 3.93087 10.875 4.20865L12.3334 5.66698L14.2084 3.75032C14.4028 3.55587 14.6323 3.45865 14.8967 3.45865C15.16 3.45865 15.3889 3.55587 15.5834 3.75032L17.4584 5.66698L19.3334 3.75032C19.5278 3.55587 19.75 3.45865 20 3.45865C20.25 3.45865 20.4723 3.55587 20.6667 3.75032L22.5834 5.66698L24.4584 3.75032C24.6528 3.55587 24.875 3.45865 25.125 3.45865C25.375 3.45865 25.5973 3.55587 25.7917 3.75032L27.7084 5.66698L29.5834 3.75032C29.7778 3.55587 30 3.45865 30.25 3.45865C30.5 3.45865 30.7223 3.55587 30.9167 3.75032L32.8334 5.66698L34.2917 4.20865C34.5417 3.93087 34.7917 3.81976 35.0417 3.87532C35.2917 3.93087 35.4167 4.1392 35.4167 4.50032V31.8336C35.4167 33.3336 34.8823 34.6186 33.8134 35.6886C32.7434 36.7575 31.4584 37.292 29.9584 37.292H10.0417ZM29.9584 33.5003C30.4306 33.5003 30.8267 33.3403 31.1467 33.0203C31.4656 32.7014 31.625 32.3059 31.625 31.8336V8.62532H13.5417V26.5003H26.375C26.9028 26.5003 27.3545 26.6809 27.73 27.042C28.1045 27.4031 28.2917 27.8475 28.2917 28.3753V31.8336C28.2917 32.3059 28.4517 32.7014 28.7717 33.0203C29.0906 33.3403 29.4862 33.5003 29.9584 33.5003ZM16.8334 15.3753C16.3612 15.3753 15.9723 15.2159 15.6667 14.897C15.3612 14.577 15.2084 14.1809 15.2084 13.7086C15.2084 13.2364 15.3684 12.8403 15.6884 12.5203C16.0073 12.2014 16.4028 12.042 16.875 12.042H23.2917C23.7639 12.042 24.16 12.2014 24.48 12.5203C24.7989 12.8403 24.9584 13.2364 24.9584 13.7086C24.9584 14.1809 24.7989 14.577 24.48 14.897C24.16 15.2159 23.7639 15.3753 23.2917 15.3753H16.8334ZM16.8334 20.3753C16.3612 20.3753 15.9723 20.2159 15.6667 19.897C15.3612 19.577 15.2084 19.1809 15.2084 18.7086C15.2084 18.2364 15.3684 17.8403 15.6884 17.5203C16.0073 17.2014 16.4028 17.042 16.875 17.042H23.2917C23.7639 17.042 24.16 17.2014 24.48 17.5203C24.7989 17.8403 24.9584 18.2364 24.9584 18.7086C24.9584 19.1809 24.7989 19.577 24.48 19.897C24.16 20.2159 23.7639 20.3753 23.2917 20.3753H16.8334ZM28.2917 15.3753C27.8195 15.3753 27.4239 15.2159 27.105 14.897C26.785 14.577 26.625 14.1809 26.625 13.7086C26.625 13.2364 26.785 12.8403 27.105 12.5203C27.4239 12.2014 27.8195 12.042 28.2917 12.042C28.7639 12.042 29.16 12.2014 29.48 12.5203C29.7989 12.8403 29.9584 13.2364 29.9584 13.7086C29.9584 14.1809 29.7989 14.577 29.48 14.897C29.16 15.2159 28.7639 15.3753 28.2917 15.3753ZM28.2917 20.3753C27.8195 20.3753 27.4239 20.2159 27.105 19.897C26.785 19.577 26.625 19.1809 26.625 18.7086C26.625 18.2364 26.785 17.8403 27.105 17.5203C27.4239 17.2014 27.8195 17.042 28.2917 17.042C28.7639 17.042 29.16 17.2014 29.48 17.5203C29.7989 17.8403 29.9584 18.2364 29.9584 18.7086C29.9584 19.1809 29.7989 19.577 29.48 19.897C29.16 20.2159 28.7639 20.3753 28.2917 20.3753Z" fill="#1CD2AD"/>
</g>
</svg>
